<svg width="24" height="24" viewBox="0 0 24 24" fill="none" xmlns="http://www.w3.org/2000/svg">
<path d="M20.5762 13.1523L21.523 13.4742C21.6455 13.1135 21.5526 12.7146 21.2833 12.4452C21.0139 12.1759 20.615 12.0829 20.2543 12.2055L20.5762 13.1523ZM10.4238 3L11.3706 3.32184C11.4932 2.9612 11.4003 2.56223 11.1309 2.29289C10.8616 2.02355 10.4626 1.93061 10.102 2.05321L10.4238 3ZM18 14.5762C19.0122 14.5762 19.9873 14.4087 20.898 14.0991L20.2543 12.2055C19.5482 12.4455 18.7904 12.5762 18 12.5762V14.5762ZM9 5.57616C9 10.5467 13.0294 14.5762 18 14.5762V12.5762C14.134 12.5762 11 9.44215 11 5.57616H9ZM9.47705 2.67815C9.16748 3.58881 9 4.56396 9 5.57616H11C11 4.78576 11.1306 4.02793 11.3706 3.32184L9.47705 2.67815ZM10.102 2.05321C6.55453 3.2591 4 6.61801 4 10.5762H6C6 7.50035 7.98441 4.88543 10.7457 3.94679L10.102 2.05321ZM4 10.5762C4 15.5467 8.02944 19.5762 13 19.5762V17.5762C9.13401 17.5762 6 14.4422 6 10.5762H4ZM13 19.5762C16.9581 19.5762 20.3171 17.0216 21.523 13.4742L19.6294 12.8305C18.6907 15.5917 16.0758 17.5762 13 17.5762V19.5762Z" fill="black"/>
</svg>
