<svg width="40" height="40" viewBox="0 0 40 40" fill="none" xmlns="http://www.w3.org/2000/svg">
<g id="Dark Mode/Dark Mode3">
<circle id="Ellipse 3" cx="20" cy="20" r="20" fill="#F9B234"/>
<g id="sun">
<path id="Oval" fill-rule="evenodd" clip-rule="evenodd" d="M20 24C22.2091 24 24 22.2091 24 20C24 17.7909 22.2091 16 20 16C17.7909 16 16 17.7909 16 20C16 22.2091 17.7909 24 20 24Z" stroke="black" stroke-width="2"/>
<path id="Line" d="M20 13V11" stroke="black" stroke-width="2" stroke-linecap="round" stroke-linejoin="round"/>
<path id="Line_2" d="M20 29V27" stroke="black" stroke-width="2" stroke-linecap="round" stroke-linejoin="round"/>
<path id="Line_3" fill-rule="evenodd" clip-rule="evenodd" d="M13 20H10H13Z" stroke="black" stroke-width="2" stroke-linecap="round" stroke-linejoin="round"/>
<path id="Line_4" fill-rule="evenodd" clip-rule="evenodd" d="M30 20H27H30Z" stroke="black" stroke-width="2" stroke-linecap="round" stroke-linejoin="round"/>
<path id="Line_5" fill-rule="evenodd" clip-rule="evenodd" d="M24.9497 15.0503L27.071 12.9289L24.9497 15.0503Z" stroke="black" stroke-width="2" stroke-linecap="round" stroke-linejoin="round"/>
<path id="Line_6" fill-rule="evenodd" clip-rule="evenodd" d="M12.929 27.0711L15.0503 24.9497L12.929 27.0711Z" stroke="black" stroke-width="2" stroke-linecap="round" stroke-linejoin="round"/>
<path id="Line_7" fill-rule="evenodd" clip-rule="evenodd" d="M24.9497 24.9497L27.071 27.0711L24.9497 24.9497Z" stroke="black" stroke-width="2" stroke-linecap="round" stroke-linejoin="round"/>
<path id="Line_8" fill-rule="evenodd" clip-rule="evenodd" d="M12.929 12.9289L15.0503 15.0503L12.929 12.9289Z" stroke="black" stroke-width="2" stroke-linecap="round" stroke-linejoin="round"/>
</g>
</g>
</svg>
